<svg viewBox="0 0 500 200" xmlns="http://www.w3.org/2000/svg"><g style="font-size:7;font-family:-apple-system,BlinkMacSystemFont,'Segoe UI',Helvetica,Arial,sans-serif,'Apple Color Emoji','Segoe UI Emoji'"><text dominant-baseline="middle" y="5" x="0">Segment 1</text><text dominant-baseline="middle" y="25" x="0">Segment 2</text><text dominant-baseline="middle" y="105" x="0">Segment 6</text><text dominant-baseline="middle" y="125" x="0">Segment 7</text><text dominant-baseline="middle" y="145" x="0">Segment 8</text><text dominant-baseline="middle" y="165" x="0">Segment 9</text><text dominant-baseline="middle" y="85" x="0">Segment 5</text><rect fill="hsl(212,92%,35%)" x="50.641688" y="0" width="199.00718650000002" height="10" rx="1" ry="1" /><rect fill="hsl(212,92%,21.5%)" x="52.146188" y="20" width="138.001249" height="10" rx="1" ry="1" /><rect fill="hsl(212,92%,29%)" x="53.066812999999996" y="100" width="174.5175625" height="10" rx="1" ry="1" /><text dominant-baseline="middle" y="65" x="0">Segment 4</text><rect fill="hsl(212,92%,27.5%)" x="53.5209995" y="140" width="168.29756350000002" height="10" rx="1" ry="1" /><text dominant-baseline="middle" y="45" x="0">Segment 3</text><text dominant-baseline="middle" y="185" x="0">Segment 10</text><rect fill="hsl(212,92%,24.5%)" x="53.3148755" y="120" width="151.959562" height="10" rx="1" ry="1" /><rect fill="hsl(212,92%,23%)" x="53.7369995" y="160" width="144.2731885" height="10" rx="1" ry="1" /><rect fill="hsl(212,92%,26%)" x="52.8445625" y="80" width="160.3043125" height="10" rx="1" ry="1" /><text fill="white" dominant-baseline="middle" x="52.641688" y="5">(10) 134ms, 250</text><text fill="white" dominant-baseline="middle" x="54.146188" y="25">(1) 93ms, 250</text><text fill="white" dominant-baseline="middle" x="55.066812999999996" y="105">(6) 118ms, 250</text><rect fill="hsl(212,92%,30.5%)" x="55.115813" y="180" width="177.153499" height="10" rx="1" ry="1" /><rect fill="hsl(212,92%,33.5%)" x="52.633187" y="60" width="191.36962599999998" height="10" rx="1" ry="1" /><rect fill="hsl(212,92%,32%)" x="52.395875000000004" y="40" width="186.58749999999998" height="10" rx="1" ry="1" /><text fill="white" dominant-baseline="middle" x="55.7369995" y="165">(2) 98ms, 250</text><text fill="white" dominant-baseline="middle" x="54.8445625" y="85">(4) 108ms, 250</text><text fill="white" dominant-baseline="middle" x="55.5209995" y="145">(5) 114ms, 250</text><text fill="white" dominant-baseline="middle" x="55.3148755" y="125">(3) 103ms, 250</text><rect fill="hsl(212,92%,48.5%)" x="252.8763755" y="0" width="85.486687" height="10" rx="1" ry="1" /><rect fill="hsl(212,92%,36.5%)" x="194.5975625" y="20" width="59.5544995" height="10" rx="1" ry="1" /><rect fill="hsl(212,92%,44%)" x="230.4711875" y="100" width="60.130562499999996" height="10" rx="1" ry="1" /><text fill="white" dominant-baseline="middle" x="57.115813" y="185">(7) 119ms, 250</text><text fill="white" dominant-baseline="middle" x="54.633187" y="65">(9) 129ms, 250</text><text fill="white" dominant-baseline="middle" x="54.395875000000004" y="45">(8) 126ms, 250</text><rect fill="hsl(212,92%,38%)" x="201.501812" y="160" width="56.449063" height="10" rx="1" ry="1" /><rect fill="hsl(212,92%,42.5%)" x="218.2749995" y="80" width="67.7035" height="10" rx="1" ry="1" /><rect fill="hsl(212,92%,41%)" x="225.05149999999998" y="140" width="57.1302505" height="10" rx="1" ry="1" /><rect fill="#ff0000" x="208.347125" y="120" width="57.323125" height="10" rx="1" ry="1" /><text fill="white" dominant-baseline="middle" x="254.8763755" y="5">(19) 58ms, 250</text><text fill="white" dominant-baseline="middle" x="196.5975625" y="25">(11) 41ms, 250</text><text fill="white" dominant-baseline="middle" x="232.4711875" y="105">(16) 41ms, 250</text><rect fill="hsl(212,92%,45.5%)" x="237.579563" y="180" width="55.831562500000004" height="10" rx="1" ry="1" /><rect fill="hsl(212,92%,50%)" x="248.5805" y="60" width="95.87075050000001" height="10" rx="1" ry="1" /><rect fill="hsl(212,92%,47%)" x="241.738937" y="40" width="87.1215625" height="10" rx="1" ry="1" /><text fill="white" dominant-baseline="middle" x="203.501812" y="165">(12) 39ms, 250</text><text fill="white" dominant-baseline="middle" x="220.2749995" y="85">(15) 46ms, 250</text><text fill="white" dominant-baseline="middle" x="227.05149999999998" y="145">(14) 39ms, 250</text><rect fill="hsl(212,92%,51.5%)" x="256.985375" y="20" width="90.775" height="10" rx="1" ry="1" /><rect fill="#ff0000" x="340.95024950000004" y="0" width="55.7960635" height="10" rx="1" ry="1" /><text fill="white" dominant-baseline="middle" x="250.5805" y="65">(20) 65ms, 250</text><text fill="white" dominant-baseline="middle" x="243.738937" y="45">(18) 59ms, 250</text><text fill="white" dominant-baseline="middle" x="239.579563" y="185">(17) 39ms, 250</text><text fill="white" dominant-baseline="middle" x="210.347125" y="125">(13) 40ms, 175</text><rect fill="hsl(212,92%,54.5%)" x="285.019562" y="140" width="66.9025" height="10" rx="1" ry="1" /><text fill="white" dominant-baseline="middle" x="258.985375" y="25">(21) 62ms, 250</text><text fill="white" dominant-baseline="middle" x="342.95024950000004" y="5">(28) 39ms, 100</text><rect fill="#ff0000" x="347.0538125" y="60" width="58.5205" height="10" rx="1" ry="1" /><rect fill="#ff0000" x="331.5527495" y="40" width="55.543000000000006" height="10" rx="1" ry="1" /><rect fill="#ff0000" x="295.8464375" y="180" width="92.96906200000001" height="10" rx="1" ry="1" /><rect fill="hsl(212,92%,60.5%)" x="293.17200049999997" y="100" width="98.53518700000001" height="10" rx="1" ry="1" /><rect fill="#ff0000" x="350.455625" y="20" width="58.1881255" height="10" rx="1" ry="1" /><text fill="white" dominant-baseline="middle" x="349.0538125" y="65">(29) 40ms, 150</text><text fill="white" dominant-baseline="middle" x="333.5527495" y="45">(25) 38ms, 100</text><text fill="white" dominant-baseline="middle" x="297.8464375" y="185">(26) 63ms, 150</text><rect fill="#ff0000" x="261.0423125" y="160" width="88.495375" height="10" rx="1" ry="1" /><text fill="white" dominant-baseline="middle" x="352.455625" y="25">(30) 40ms, 25</text><text fill="white" dominant-baseline="middle" x="287.019562" y="145">(23) 46ms, 250</text><text fill="white" dominant-baseline="middle" x="263.0423125" y="165">(22) 60ms, 50</text><rect fill="#ff0000" x="354.4447505" y="140" width="59.949499" height="10" rx="1" ry="1" /><text fill="white" dominant-baseline="middle" x="295.17200049999997" y="105">(27) 67ms, 250</text><text fill="white" dominant-baseline="middle" x="356.4447505" y="145">(31) 41ms, 100</text><rect fill="#ff0000" x="290.0865005" y="80" width="81.9240625" height="10" rx="1" ry="1" /><rect fill="#ff0000" x="395.692688" y="100" width="64.5419995" height="10" rx="1" ry="1" /><text fill="white" dominant-baseline="middle" x="292.0865005" y="85">(24) 56ms, 75</text><text fill="white" dominant-baseline="middle" x="397.692688" y="105">(32) 44ms, 75</text></g></svg>